<?xml version="1.0" standalone="no"?>
<!DOCTYPE svg PUBLIC "-//W3C//DTD SVG 20010904//EN"
 "http://www.w3.org/TR/2001/REC-SVG-20010904/DTD/svg10.dtd">
<svg version="1.0" xmlns="http://www.w3.org/2000/svg"
 width="1000.000000pt" height="1000.000000pt" viewBox="0 0 1000.000000 1000.000000"
 preserveAspectRatio="xMidYMid meet">
<metadata>
Created by potrace 1.14, written by Peter Selinger 2001-2017
</metadata>
<g transform="translate(0.000000,1000.000000) scale(0.100000,-0.100000)"
fill="#000000" stroke="none">
<path d="M712 7906 c-46 -13 -99 -66 -110 -112 -7 -26 -10 -991 -10 -2901 1
-2726 2 -2864 19 -2902 11 -24 34 -50 60 -68 l43 -28 940 0 c846 0 1120 5
1195 20 14 2 47 7 75 10 159 18 346 65 556 140 83 30 268 126 372 194 174 114
336 271 464 451 81 115 94 136 163 275 49 100 131 313 146 382 30 136 55 273
61 333 9 96 11 2270 2 2368 -51 558 -290 1036 -683 1369 -114 96 -309 215
-452 276 -188 80 -431 146 -628 171 -39 5 -64 7 -205 22 -98 11 -1972 11
-2008 0z m1918 -1130 c144 -20 293 -70 414 -139 77 -45 204 -164 252 -237 62
-95 118 -238 139 -360 4 -19 9 -48 13 -65 3 -16 7 -489 8 -1050 4 -1130 4
-1117 -61 -1308 -114 -335 -381 -536 -780 -585 -33 -4 -224 -7 -425 -7 l-365
0 0 1870 c-1 1029 1 1875 3 1882 3 9 92 11 380 8 208 -2 397 -6 422 -9z"/>
<path d="M5920 7912 c-37 -6 -107 -60 -122 -96 -11 -25 -13 -546 -13 -2916 l0
-2885 23 -37 c13 -20 40 -47 60 -60 l37 -23 1729 -2 c1412 -1 1734 1 1760 12
38 17 81 60 96 99 7 20 11 168 12 450 0 473 -1 480 -70 533 l-37 28 -1190 5
-1189 5 -1 2385 c0 2529 2 2403 -44 2451 -9 9 -32 25 -51 35 -32 17 -70 18
-505 18 -258 1 -481 -1 -495 -2z"/>
</g>
</svg>
